<svg class="icon" version="1.1" xmlns="http://www.w3.org/2000/svg" viewBox="0 0 90 90">
<g id="dataBase-small">
	<path fill="none" stroke="#000000" stroke-width="1.5" stroke-linecap="round" stroke-linejoin="round" stroke-miterlimit="10" d="
		M44.496,25.676c-5.474,0-9.912,4.438-9.912,9.912v12c0,5.474,4.438,9.912,9.912,9.912s9.912-4.438,9.912-9.912v-12
		C54.408,30.114,49.97,25.676,44.496,25.676z"/>
	<path fill="none" stroke="#000000" stroke-width="1.5" stroke-linecap="round" stroke-linejoin="round" stroke-miterlimit="10" d="
		M54.408,43.588c0,5.474-4.438,9.912-9.912,9.912s-9.912-4.438-9.912-9.912"/>
	<path fill="none" stroke="#000000" stroke-width="1.5" stroke-linecap="round" stroke-linejoin="round" stroke-miterlimit="10" d="
		M54.408,39.588c0,5.474-4.438,9.912-9.912,9.912s-9.912-4.438-9.912-9.912"/>
	<path fill="none" stroke="#000000" stroke-width="1.5" stroke-linecap="round" stroke-linejoin="round" stroke-miterlimit="10" d="
		M54.408,35.588c0,5.474-4.438,9.912-9.912,9.912s-9.912-4.438-9.912-9.912"/>
	<circle fill="#3798B9" cx="44.496" cy="35.588" r="3.193"/<name />
	<line fill="#FFFFFF" stroke="#000000" stroke-width="1.5" stroke-linejoin="round" stroke-miterlimit="10" x1="34.584" y1="65.118" x2="54.408" y2="65.118"/>
	<line fill="#FFFFFF" stroke="#000000" stroke-width="1.5" stroke-linejoin="round" stroke-miterlimit="10" x1="44.496" y1="57.5" x2="44.496" y2="65.118"/>
</g>
<g id="dataBase-medium">
	<path fill="none" stroke="#000000" stroke-width="3" stroke-linecap="round" stroke-linejoin="round" stroke-miterlimit="10" d="
		M44.496,16.72c-8.211,0-14.868,6.657-14.868,14.868v18c0,8.211,6.657,14.868,14.868,14.868s14.868-6.657,14.868-14.868v-18
		C59.364,23.376,52.707,16.72,44.496,16.72z"/>
	<path fill="none" stroke="#000000" stroke-width="1.5" stroke-linecap="round" stroke-linejoin="round" stroke-miterlimit="10" d="
		M59.364,43.588c0,8.211-6.657,14.868-14.868,14.868s-14.868-6.657-14.868-14.868"/>
	<path fill="none" stroke="#000000" stroke-width="1.5" stroke-linecap="round" stroke-linejoin="round" stroke-miterlimit="10" d="
		M59.364,37.588c0,8.211-6.657,14.868-14.868,14.868s-14.868-6.657-14.868-14.868"/>
	<path fill="none" stroke="#000000" stroke-width="3" stroke-linecap="round" stroke-linejoin="round" stroke-miterlimit="10" d="
		M59.364,31.588c0,8.211-6.657,14.868-14.868,14.868s-14.868-6.657-14.868-14.868"/>
	<circle fill="#3798B9" cx="44.496" cy="31.588" r="3.729"/>
	<line fill="none" stroke="#000000" stroke-width="2" stroke-linejoin="round" stroke-miterlimit="10" x1="29.628" y1="74.118" x2="59.364" y2="74.118"/>
	<line fill="none" stroke="#000000" stroke-width="2" stroke-linejoin="round" stroke-miterlimit="10" x1="44.496" y1="65.457" x2="44.496" y2="73.117"/>
</g>
<g id="dataBase-large">
	<path fill="none" stroke="#000000" stroke-width="3" stroke-linecap="round" stroke-linejoin="round" stroke-miterlimit="10" d="
		M62.167,39.884c0,9.76-7.912,17.671-17.671,17.671s-17.671-7.912-17.671-17.671"/>
	<path fill="none" stroke="#000000" stroke-width="3" stroke-linecap="round" stroke-linejoin="round" stroke-miterlimit="10" d="
		M62.167,33.753c0,9.76-7.912,17.671-17.671,17.671s-17.671-7.912-17.671-17.671"/>
	<path fill="none" stroke="#000000" stroke-width="5" stroke-linecap="round" stroke-linejoin="round" stroke-miterlimit="10" d="
		M62.167,25.622c0,9.76-7.912,17.671-17.671,17.671s-17.671-7.912-17.671-17.671"/>
	<path fill="none" stroke="#000000" stroke-width="5" stroke-linecap="round" stroke-linejoin="round" stroke-miterlimit="10" d="
		M44.496,7.95c-9.76,0-17.671,7.912-17.671,17.671v21.394c0,9.76,7.912,17.671,17.671,17.671s17.671-7.912,17.671-17.671V25.622
		C62.167,15.862,54.256,7.95,44.496,7.95z"/>
	<circle fill="#3798B9" cx="44.496" cy="25.622" r="4.432"/>
		<line fill="none" stroke="#000000" stroke-width="3" stroke-linejoin="round" stroke-miterlimit="10" x1="26.825" y1="82.225" x2="61.479" y2="82.225"/>
		<line fill="none" stroke="#000000" stroke-width="3" stroke-linecap="round" stroke-linejoin="round" stroke-miterlimit="10" x1="44.496" y1="64.687" x2="44.496" y2="82.225"/>
	<g>
		<line fill="none" stroke="#3798B9" stroke-width="7" stroke-linejoin="round" stroke-miterlimit="10" x1="36.628" y1="82.225" x2="52.364" y2="82.225"/>
		<line fill="none" stroke="#3798B9" stroke-width="7" stroke-linejoin="round" stroke-miterlimit="10" x1="44.496" y1="74.357" x2="44.496" y2="82.225"/>
	</g>
</g>
</svg>
